<svg width="960" height="540" viewBox="0 0 960 540" fill="none" xmlns="http://www.w3.org/2000/svg">
    <defs>
        <linearGradient id="bg" x1="0" y1="0" x2="960" y2="540" gradientUnits="userSpaceOnUse">
            <stop stop-color="#F3F8FF"/>
            <stop offset="1" stop-color="#EEF6F2"/>
        </linearGradient>
    </defs>
    <rect width="960" height="540" fill="url(#bg)"/>
    <rect x="120" y="70" width="420" height="400" rx="16" fill="#FFFFFF" stroke="#2D8CFF" stroke-width="3"/>
    <rect x="580" y="70" width="260" height="400" rx="16" fill="#FFFFFF" stroke="#F2A900" stroke-width="3"/>

    <g stroke="#C9D7E8" stroke-width="1.5">
        <line x1="120" y1="136" x2="540" y2="136"/>
        <line x1="120" y1="202" x2="540" y2="202"/>
        <line x1="120" y1="268" x2="540" y2="268"/>
        <line x1="120" y1="334" x2="540" y2="334"/>
        <line x1="120" y1="400" x2="540" y2="400"/>
        <line x1="190" y1="70" x2="190" y2="470"/>
        <line x1="260" y1="70" x2="260" y2="470"/>
        <line x1="330" y1="70" x2="330" y2="470"/>
        <line x1="400" y1="70" x2="400" y2="470"/>
        <line x1="470" y1="70" x2="470" y2="470"/>
    </g>

    <circle cx="157" cy="103" r="17" fill="#F2A900"/>
    <circle cx="227" cy="103" r="17" fill="#F2A900"/>
    <circle cx="297" cy="103" r="17" fill="#F2A900"/>
    <circle cx="367" cy="169" r="17" fill="#2D8CFF"/>
    <circle cx="437" cy="235" r="17" fill="#2D8CFF"/>
    <circle cx="507" cy="301" r="17" fill="#2D8CFF"/>

    <text x="610" y="130" fill="#102A43" font-family="'IBM Plex Sans', sans-serif" font-size="26" font-weight="700">Halma GUI Preview</text>
    <text x="610" y="175" fill="#31506D" font-family="'IBM Plex Sans', sans-serif" font-size="17">Human vs AI board state</text>
    <text x="610" y="218" fill="#31506D" font-family="'IBM Plex Sans', sans-serif" font-size="17">Search depth: 4 plies</text>
    <text x="610" y="261" fill="#31506D" font-family="'IBM Plex Sans', sans-serif" font-size="17">Alpha-beta pruning: on</text>
    <text x="610" y="304" fill="#31506D" font-family="'IBM Plex Sans', sans-serif" font-size="17">Move ordering: enabled</text>
</svg>
